<svg width="9.313rem" height="3.5rem" viewBox="0 0 149 56" fill="none" xmlns="http://www.w3.org/2000/svg">
  <g clip-path="url(#clip0_19_11)">
    <path stroke="var(--dark)" stroke-width="8" d="M52 4H4V52H52V4Z" />
    <path fill="var(--dark)" d="M41 15H15V41H41V15Z" />
    <path fill="var(--dark)" d="M80.4688 20.9531C80.4688 21.2448 80.4167 21.5156 80.3125 21.7656C80.2083 22.0156 80.0625 22.2344 79.875 22.4219C79.6979 22.599 79.4844 22.7396 79.2344 22.8438C78.9844 22.9479 78.7135 23 78.4219 23H63.7656C63.3906 23 62.9844 22.9583 62.5469 22.875C62.1198 22.7812 61.6927 22.6406 61.2656 22.4531C60.849 22.2656 60.4479 22.026 60.0625 21.7344C59.6771 21.4323 59.3333 21.0729 59.0312 20.6562C58.7396 20.2292 58.5052 19.7396 58.3281 19.1875C58.151 18.625 58.0625 17.9948 58.0625 17.2969V6.29688C58.0625 5.92188 58.1042 5.52083 58.1875 5.09375C58.2812 4.65625 58.4219 4.22917 58.6094 3.8125C58.7969 3.38542 59.0417 2.97917 59.3438 2.59375C59.6458 2.20833 60.0052 1.86979 60.4219 1.57812C60.849 1.27604 61.3385 1.03646 61.8906 0.85938C62.4427 0.68229 63.0677 0.59375 63.7656 0.59375H80.2812V4.65625H63.7656C63.2344 4.65625 62.8281 4.79688 62.5469 5.07812C62.2656 5.35938 62.125 5.77604 62.125 6.32812V17.2969C62.125 17.8177 62.2656 18.224 62.5469 18.5156C62.8385 18.7969 63.2448 18.9375 63.7656 18.9375H76.4062V13.8438H65.5938V9.75H78.4219C78.7135 9.75 78.9844 9.8073 79.2344 9.9219C79.4844 10.026 79.6979 10.1719 79.875 10.3594C80.0625 10.5469 80.2083 10.7656 80.3125 11.0156C80.4167 11.2552 80.4688 11.5156 80.4688 11.7969V20.9531ZM100.822 11.7031C100.822 12.2656 100.723 12.875 100.525 13.5312C100.327 14.1771 100.004 14.7812 99.5562 15.3438C99.1187 15.8958 98.5406 16.3594 97.8219 16.7344C97.1135 17.1094 96.249 17.2969 95.2281 17.2969H87.9V13.4375H95.2281C95.7802 13.4375 96.2073 13.2708 96.5094 12.9375C96.8115 12.5938 96.9625 12.1719 96.9625 11.6719C96.9625 11.1406 96.7906 10.724 96.4469 10.4219C96.1135 10.1198 95.7073 9.9688 95.2281 9.9688H87.9C87.3479 9.9688 86.9208 10.1406 86.6187 10.4844C86.3167 10.8177 86.1656 11.2344 86.1656 11.7344V17.4062C86.1656 17.9479 86.3323 18.3698 86.6656 18.6719C87.0094 18.974 87.4312 19.125 87.9312 19.125H95.2281V23H87.9C87.3375 23 86.7281 22.901 86.0719 22.7031C85.426 22.5052 84.8219 22.1875 84.2594 21.75C83.7073 21.3021 83.2437 20.724 82.8687 20.0156C82.4937 19.2969 82.3062 18.4271 82.3062 17.4062V11.7031C82.3062 11.1406 82.4052 10.5365 82.6031 9.8906C82.801 9.2344 83.1187 8.6302 83.5562 8.0781C84.0042 7.5156 84.5823 7.0469 85.2906 6.67188C86.0094 6.29688 86.8792 6.10938 87.9 6.10938H95.2281C95.7906 6.10938 96.3948 6.20833 97.0406 6.40625C97.6969 6.60417 98.301 6.92708 98.8531 7.375C99.4156 7.8125 99.8844 8.3906 100.259 9.1094C100.634 9.8177 100.822 10.6823 100.822 11.7031ZM120.675 23H116.612V13.625C116.612 13.0938 116.519 12.6198 116.331 12.2031C116.154 11.776 115.909 11.4115 115.597 11.1094C115.284 10.8073 114.915 10.5781 114.487 10.4219C114.071 10.2552 113.618 10.1719 113.128 10.1719H106.019V23H101.956V8.125C101.956 7.8438 102.008 7.5833 102.112 7.3438C102.217 7.0938 102.362 6.88021 102.55 6.70312C102.737 6.51562 102.956 6.36979 103.206 6.26562C103.456 6.16146 103.722 6.10938 104.003 6.10938H113.159C113.67 6.10938 114.206 6.16667 114.769 6.28125C115.342 6.39583 115.904 6.58333 116.456 6.84375C117.019 7.0938 117.55 7.4167 118.05 7.8125C118.56 8.1979 119.008 8.6719 119.394 9.2344C119.79 9.7865 120.102 10.4271 120.331 11.1562C120.56 11.8854 120.675 12.7083 120.675 13.625V23ZM81.875 42.9375C81.875 43.9792 81.7344 44.9635 81.4531 45.8906C81.1823 46.8073 80.7917 47.6406 80.2812 48.3906C79.7812 49.1406 79.1719 49.7969 78.4531 50.3594C77.7448 50.9219 76.9531 51.3646 76.0781 51.6875L80.8281 55.4531H74.9375L71.0312 52.3125H67.0312C65.6875 52.3125 64.4427 52.0833 63.2969 51.625C62.151 51.1562 61.1615 50.5052 60.3281 49.6719C59.4948 48.8385 58.8385 47.849 58.3594 46.7031C57.8906 45.5573 57.6562 44.3021 57.6562 42.9375V38.6562C57.6562 37.3021 57.8906 36.0521 58.3594 34.9062C58.8385 33.75 59.4948 32.7604 60.3281 31.9375C61.1615 31.1042 62.151 30.4531 63.2969 29.9844C64.4427 29.5156 65.6875 29.2812 67.0312 29.2812H72.5312C73.875 29.2812 75.1146 29.5156 76.25 29.9844C77.3958 30.4531 78.3854 31.1042 79.2188 31.9375C80.0521 32.7604 80.7031 33.75 81.1719 34.9062C81.6406 36.0521 81.875 37.3021 81.875 38.6562V42.9375ZM77.8125 38.6562C77.8125 37.8542 77.6823 37.1302 77.4219 36.4844C77.1719 35.8281 76.8125 35.2708 76.3438 34.8125C75.8854 34.3438 75.3281 33.9844 74.6719 33.7344C74.026 33.474 73.3125 33.3438 72.5312 33.3438H67.0312C66.2396 33.3438 65.5156 33.474 64.8594 33.7344C64.2135 33.9844 63.6562 34.3438 63.1875 34.8125C62.7188 35.2708 62.3542 35.8281 62.0938 36.4844C61.8438 37.1302 61.7188 37.8542 61.7188 38.6562V42.9375C61.7188 43.7396 61.8438 44.4688 62.0938 45.125C62.3542 45.7708 62.7188 46.3281 63.1875 46.7969C63.6562 47.2552 64.2135 47.6146 64.8594 47.875C65.5156 48.125 66.2396 48.25 67.0312 48.25H72.5C73.2917 48.25 74.0104 48.125 74.6562 47.875C75.3125 47.6146 75.875 47.2552 76.3438 46.7969C76.8125 46.3281 77.1719 45.7708 77.4219 45.125C77.6823 44.4688 77.8125 43.7396 77.8125 42.9375V38.6562ZM102.306 49.9531C102.306 50.2448 102.254 50.5156 102.15 50.7656C102.046 51.0156 101.9 51.2344 101.712 51.4219C101.535 51.599 101.322 51.7396 101.072 51.8438C100.832 51.9479 100.572 52 100.291 52H91.1031C90.6031 52 90.0667 51.9427 89.4937 51.8281C88.9312 51.7135 88.374 51.5312 87.8219 51.2812C87.2698 51.0208 86.7333 50.6979 86.2125 50.3125C85.7021 49.9167 85.2542 49.4427 84.8687 48.8906C84.4833 48.3281 84.1708 47.6823 83.9312 46.9531C83.7021 46.224 83.5875 45.401 83.5875 44.4844V35.1094H87.65V44.4844C87.65 45.0156 87.7385 45.4948 87.9156 45.9219C88.1031 46.3385 88.3531 46.6979 88.6656 47C88.9781 47.3021 89.3427 47.5365 89.7594 47.7031C90.1865 47.8594 90.6448 47.9375 91.1344 47.9375H98.2437V35.1094H102.306V49.9531ZM108.644 31.6406H104.581V27.9688H108.644V31.6406ZM108.644 52H104.581V35.1094H108.644V52ZM127.309 52H116.294C115.731 52 115.117 51.901 114.45 51.7031C113.783 51.5052 113.164 51.1823 112.591 50.7344C112.028 50.276 111.554 49.6875 111.169 48.9688C110.794 48.2396 110.606 47.349 110.606 46.2969V40.7969C110.606 40.4115 110.648 40.0052 110.731 39.5781C110.825 39.151 110.966 38.7292 111.153 38.3125C111.341 37.8854 111.58 37.4792 111.872 37.0938C112.174 36.7083 112.533 36.3698 112.95 36.0781C113.377 35.7865 113.867 35.5521 114.419 35.375C114.971 35.1979 115.596 35.1094 116.294 35.1094H127.309V39.1719H116.294C115.763 39.1719 115.356 39.3073 115.075 39.5781C114.804 39.849 114.669 40.2656 114.669 40.8281V46.2969C114.669 46.8281 114.809 47.2344 115.091 47.5156C115.372 47.7969 115.783 47.9375 116.325 47.9375H127.309V52ZM148.912 52H143.053L134.866 44.0938C134.407 43.6771 134.194 43.1562 134.225 42.5312C134.246 42.2396 134.319 41.9688 134.444 41.7188C134.579 41.4583 134.761 41.2396 134.991 41.0625L142.412 35.0781H148.912L139.35 42.7812L148.912 52ZM133.194 52H129.131V27.9688H133.194V52Z" />
  </g>
</svg>
